<svg xmlns="http://www.w3.org/2000/svg" viewBox="0 0 1440 800" preserveAspectRatio="none">
  <defs>
    <!-- Enhanced Gradient Definitions -->
    <linearGradient id="bg-gradient" x1="0%" y1="0%" x2="100%" y2="100%">
      <stop offset="0%" stop-color="#6c2bd9" stop-opacity="0.8" />
      <stop offset="50%" stop-color="#8e5cf7" stop-opacity="0.6" />
      <stop offset="75%" stop-color="#ff6a00" stop-opacity="0.7" />
      <stop offset="100%" stop-color="#febb00" stop-opacity="0.8" />
    </linearGradient>
    
    <!-- Soft Radial Gradients -->
    <radialGradient id="glow-1" cx="30%" cy="30%" r="60%" fx="30%" fy="30%">
      <stop offset="0%" stop-color="#ffffff" stop-opacity="0.15" />
      <stop offset="100%" stop-color="#ffffff" stop-opacity="0" />
    </radialGradient>
    
    <radialGradient id="glow-2" cx="70%" cy="70%" r="70%" fx="70%" fy="70%">
      <stop offset="0%" stop-color="#ffffff" stop-opacity="0.1" />
      <stop offset="100%" stop-color="#ffffff" stop-opacity="0" />
    </radialGradient>
    
    <!-- Accent Gradient -->
    <linearGradient id="accent-gradient" x1="0%" y1="0%" x2="100%" y2="100%">
      <stop offset="0%" stop-color="#ff6a00" stop-opacity="0.4" />
      <stop offset="100%" stop-color="#6c2bd9" stop-opacity="0.2" />
    </linearGradient>
    
    <!-- Pattern Definition -->
    <pattern id="dots-pattern" x="0" y="0" width="20" height="20" patternUnits="userSpaceOnUse">
      <circle cx="10" cy="10" r="1" fill="#ffffff" fill-opacity="0.3" />
    </pattern>
    
    <!-- Filters -->
    <filter id="glow" x="-50%" y="-50%" width="200%" height="200%">
      <feGaussianBlur stdDeviation="10" result="blur" />
      <feComposite in="SourceGraphic" in2="blur" operator="over" />
    </filter>
  </defs>

  <!-- Base Gradient Background -->
  <rect width="1440" height="800" fill="url(#bg-gradient)" />
  
  <!-- Mesh-like Background Texture -->
  <rect width="1440" height="800" fill="url(#dots-pattern)" opacity="0.4" />
  
  <!-- Glowing Orbs -->
  <circle cx="300" cy="200" r="350" fill="url(#glow-1)" />
  <circle cx="1100" cy="600" r="400" fill="url(#glow-2)" />
  
  <!-- Fluid Shapes -->
  <path d="M-100,300 C200,250 400,450 600,300 S900,100 1200,250 S1500,500 1600,400" 
        fill="none" stroke="#ffffff" stroke-width="2" stroke-opacity="0.2" />
  
  <path d="M-100,500 C150,400 400,600 700,500 S1000,300 1300,450 S1600,700 1700,600" 
        fill="none" stroke="#ffffff" stroke-width="1.5" stroke-opacity="0.15" />
  
  <!-- Floating Geometric Elements -->
  <circle cx="200" cy="700" r="80" fill="url(#accent-gradient)" opacity="0.6" />
  <circle cx="1200" cy="150" r="100" fill="url(#accent-gradient)" opacity="0.5" />
  
  <!-- Modern Wave Elements -->
  <path d="M-100,650 Q360,500 720,650 T1540,650" 
        fill="none" stroke="#ffffff" stroke-width="70" stroke-opacity="0.07" />
  <path d="M-100,750 Q360,600 720,750 T1540,750" 
        fill="none" stroke="#ffffff" stroke-width="50" stroke-opacity="0.05" />
  
  <!-- Accent Lines -->
  <line x1="0" y1="100" x2="1440" y2="300" stroke="#ff6a00" stroke-width="0.5" stroke-opacity="0.2" />
  <line x1="0" y1="400" x2="1440" y2="200" stroke="#6c2bd9" stroke-width="0.5" stroke-opacity="0.2" />
  
  <!-- Floating Particles -->
  <g filter="url(#glow)">
    <circle cx="200" cy="200" r="3" fill="#ffffff" opacity="0.8" />
    <circle cx="400" cy="300" r="2" fill="#ffffff" opacity="0.7" />
    <circle cx="600" cy="150" r="4" fill="#ffffff" opacity="0.6" />
    <circle cx="800" cy="400" r="2" fill="#ffffff" opacity="0.8" />
    <circle cx="1000" cy="200" r="3" fill="#ffffff" opacity="0.7" />
    <circle cx="1200" cy="300" r="4" fill="#ffffff" opacity="0.6" />
    <circle cx="1300" cy="600" r="3" fill="#ffffff" opacity="0.8" />
    <circle cx="900" cy="700" r="2" fill="#ffffff" opacity="0.7" />
    <circle cx="300" cy="500" r="3" fill="#ffffff" opacity="0.6" />
  </g>
  
  <!-- Abstract Decorative Element -->
  <path d="M700,100 Q900,0 1100,100 T1500,100 L1500,0 L700,0 Z" 
        fill="#6c2bd9" fill-opacity="0.1" />
  <path d="M-100,700 Q100,600 300,700 T700,700 L700,800 L-100,800 Z" 
        fill="#ff6a00" fill-opacity="0.1" />
</svg>