<?xml version="1.0" encoding="UTF-8" standalone="no"?>
<svg
   version="1.1"
   x="0px"
   y="0px"
   viewBox="0 0 398.67001 148.069"
   xml:space="preserve"
   id="svg10"
   sodipodi:docname="logo_main.svg"
   width="398.67001"
   height="148.069"
   inkscape:version="1.4 (e7c3feb1, 2024-10-09)"
   xmlns:inkscape="http://www.inkscape.org/namespaces/inkscape"
   xmlns:sodipodi="http://sodipodi.sourceforge.net/DTD/sodipodi-0.dtd"
   xmlns="http://www.w3.org/2000/svg"
   xmlns:svg="http://www.w3.org/2000/svg"><sodipodi:namedview
   id="namedview6"
   pagecolor="#ffffff"
   bordercolor="#000000"
   borderopacity="0.25"
   inkscape:showpageshadow="2"
   inkscape:pageopacity="0.0"
   inkscape:pagecheckerboard="0"
   inkscape:deskcolor="#d1d1d1"
   inkscape:zoom="1.0713272"
   inkscape:cx="139.07983"
   inkscape:cy="129.2789"
   inkscape:window-width="1512"
   inkscape:window-height="916"
   inkscape:window-x="0"
   inkscape:window-y="38"
   inkscape:window-maximized="1"
   inkscape:current-layer="svg10" />
   <defs
   id="defs6">
      <!-- Primary brand gradient: orange to purple -->
      <linearGradient
   id="SVGID_1_"
   gradientUnits="userSpaceOnUse"
   x1="210.6162"
   y1="152.4061"
   x2="283.42151"
   y2="254.8488">
         <stop
   offset="0"
   style="stop-color:#FF6A00"
   id="stop1" />
         <stop
   offset="1"
   style="stop-color:#6C2BD9"
   id="stop2" />
      </linearGradient>
      
      <!-- Secondary gradient used in small box -->
      <linearGradient
   id="SVGID_2_"
   gradientUnits="userSpaceOnUse"
   x1="304.52881"
   y1="149.9341"
   x2="314.77951"
   y2="160.18469"
   gradientTransform="translate(-155.652,-114.507)">
         <stop
   offset="0"
   style="stop-color:#FF6A00"
   id="stop3" />
         <stop
   offset="1"
   style="stop-color:#6C2BD9"
   id="stop4" />
      </linearGradient>
      
      <!-- Third gradient used in medium box -->
      <linearGradient
   id="SVGID_3_"
   gradientUnits="userSpaceOnUse"
   x1="277.1142"
   y1="158.08"
   x2="295.78549"
   y2="176.7513"
   gradientTransform="translate(-155.652,-114.507)">
         <stop
   offset="0"
   style="stop-color:#FF6A00"
   id="stop5" />
         <stop
   offset="1"
   style="stop-color:#6C2BD9"
   id="stop6" />
      </linearGradient>
      
      <style
   type="text/css"
   id="style6">
        @import url('https://fonts.googleapis.com/css2?family=Poppins:wght@800&amp;display=swap');
        .logo-text { 
          font-family: 'Poppins', sans-serif; 
          font-weight: 800;
        }
      </style>
   
      
   
         
         
         
         
         
         
         
         
         
         
      </defs>

   <g
   id="g1"
   transform="translate(-8,-8)"><text
     class="logo-text"
     style="font-size:66.6667px;fill:#2d3748"
     id="text1"
     x="208.03671"
     y="94.760475">GIMS</text><path
     style="fill:#2d3748"
     d="M 175.697,129.33 H 12.999 C 10.238,129.33 8,127.092 8,124.331 V 16.785 c 0,-2.761 2.238,-4.999 4.999,-4.999 h 162.698 c 2.761,0 4.999,2.238 4.999,4.999 v 107.546 c 0,2.761 -2.238,4.999 -4.999,4.999 z"
     id="path3" /><polygon
     style="fill:#2d3748"
     points="230.137,249.185 269.863,249.185 278.339,260.672 221.661,260.672 "
     id="polygon3"
     transform="translate(-155.652,-114.507)" /><polygon
     style="fill:url(#SVGID_1_)"
     points="268.644,137.16 268.644,182.674 325.022,182.674 325.022,232.97 174.978,232.97 174.978,137.16 "
     id="polygon4"
     transform="translate(-155.652,-114.507)" /><rect
     x="158.98601"
     y="11.786999"
     style="fill:#f9fbfc"
     width="21.709999"
     height="21.709999"
     id="rect4" /><rect
     x="146.946"
     y="33.496998"
     style="fill:url(#SVGID_2_)"
     width="12.039"
     height="12.039"
     id="rect6" /><path
     style="fill:#2d3748"
     d="M 184.483,24.998 H 167.485 V 8 h 14.719 c 1.259,0 2.279,1.02 2.279,2.279 z"
     id="path6" /><rect
     x="123.15601"
     y="45.267002"
     style="fill:url(#SVGID_3_)"
     width="17.52"
     height="17.52"
     id="rect8" /><path
     style="fill:#2d3748"
     d="m 68.643,156.069 h 51.41 c 1.455,0 2.634,-1.179 2.634,-2.634 v -7.27 H 66.009 v 7.27 c 0,1.454 1.179,2.634 2.634,2.634 z"
     id="path8" /></g>
</svg>
